<svg width="12" height="14" viewBox="0 0 12 14" fill="none" xmlns="http://www.w3.org/2000/svg">
<path d="M8.99999 8.16667C8.99999 8.32138 8.93678 8.46975 8.82425 8.57915C8.71173 8.68855 8.55912 8.75 8.39999 8.75H3.6C3.44087 8.75 3.28825 8.68855 3.17573 8.57915C3.06321 8.46975 3 8.32138 3 8.16667C3 8.01196 3.06321 7.86359 3.17573 7.75419C3.28825 7.6448 3.44087 7.58334 3.6 7.58334H8.39999C8.55912 7.58334 8.71173 7.6448 8.82425 7.75419C8.93678 7.86359 8.99999 8.01196 8.99999 8.16667ZM6.59999 9.91667H3.6C3.44087 9.91667 3.28825 9.97813 3.17573 10.0875C3.06321 10.1969 3 10.3453 3 10.5C3 10.6547 3.06321 10.8031 3.17573 10.9125C3.28825 11.0219 3.44087 11.0833 3.6 11.0833H6.59999C6.75912 11.0833 6.91173 11.0219 7.02426 10.9125C7.13678 10.8031 7.19999 10.6547 7.19999 10.5C7.19999 10.3453 7.13678 10.1969 7.02426 10.0875C6.91173 9.97813 6.75912 9.91667 6.59999 9.91667ZM12 6.11626V11.0833C11.999 11.8566 11.6827 12.5979 11.1203 13.1447C10.5579 13.6915 9.79534 13.9991 8.99999 14H3C2.20464 13.9991 1.44213 13.6915 0.879731 13.1447C0.317329 12.5979 0.000952713 11.8566 0 11.0833V2.91668C0.000952713 2.14341 0.317329 1.40209 0.879731 0.855308C1.44213 0.308528 2.20464 0.000939694 3 1.3445e-05H5.70899C6.26076 -0.00136726 6.80734 0.103606 7.31713 0.308864C7.82691 0.514122 8.28978 0.815593 8.67899 1.19585L10.7694 3.22934C11.1607 3.60748 11.471 4.05736 11.6822 4.55291C11.8935 5.04846 12.0015 5.57984 12 6.11626ZM7.83059 2.02068C7.64176 1.84286 7.42975 1.68988 7.19999 1.56568V4.08334C7.19999 4.23805 7.26321 4.38643 7.37573 4.49582C7.48825 4.60522 7.64086 4.66668 7.79999 4.66668H10.3896C10.2618 4.44337 10.1042 4.23743 9.92099 4.05418L7.83059 2.02068ZM10.8 6.11626C10.8 6.02001 10.7808 5.92784 10.7718 5.83334H7.79999C7.3226 5.83334 6.86476 5.64897 6.5272 5.32078C6.18963 4.99259 5.99999 4.54747 5.99999 4.08334V1.1941C5.90279 1.18535 5.80739 1.16668 5.70899 1.16668H3C2.52261 1.16668 2.06477 1.35105 1.72721 1.67924C1.38964 2.00743 1.2 2.45255 1.2 2.91668V11.0833C1.2 11.5475 1.38964 11.9926 1.72721 12.3208C2.06477 12.649 2.52261 12.8333 3 12.8333H8.99999C9.47738 12.8333 9.93521 12.649 10.2728 12.3208C10.6103 11.9926 10.8 11.5475 10.8 11.0833V6.11626Z" fill="#E25C45"/>
</svg>
