<svg width="74" height="20" viewBox="0 0 74 20" fill="none" xmlns="http://www.w3.org/2000/svg">
<path d="M72.7806 14.2556C72.7806 14.2556 72.6479 14.3219 72.5153 14.5209C72.3164 14.7198 72.0512 14.985 71.6534 15.2502C70.8577 15.9133 69.6642 16.7089 67.9403 17.4383C67.7413 17.5046 67.5424 17.6372 67.2772 17.7035C67.0783 17.7698 66.8131 17.8361 66.6142 17.9687C66.4815 18.035 66.3489 18.035 66.2826 18.1013C66.15 18.1676 66.0174 18.1676 65.8848 18.234C65.6196 18.3003 65.3544 18.3666 65.0891 18.4329C64.0282 18.6981 62.9011 18.9633 61.7076 19.0959C60.5141 19.2285 59.188 19.3611 57.8619 19.3611C56.5358 19.3611 55.1433 19.3611 53.7509 19.2285C49.9715 18.897 46.4573 18.1013 43.5399 17.1731C42.0812 16.7089 40.8214 16.2448 39.6942 15.7807C38.567 15.3165 37.6387 14.8524 36.8431 14.4545C35.2517 13.9241 32.8647 13.0621 30.0799 12.0012C28.6875 11.4708 27.1625 10.9404 25.5049 10.4099C23.9135 9.87948 22.1896 9.34904 20.3993 8.9512C17.7471 8.28815 15.2275 7.89032 12.8405 7.75771C10.5198 7.55879 8.46438 7.95662 6.74045 8.35446C5.87848 8.55337 5.08281 8.75229 4.41976 8.9512C3.75671 9.15012 3.15996 9.28273 2.62951 9.41534C2.16538 9.54795 1.76755 9.61426 1.50232 9.68056C1.2371 9.74687 1.10449 9.74687 1.10449 9.74687C1.10449 9.74687 1.2371 9.68056 1.50232 9.61426C1.76755 9.54795 2.09907 9.34904 2.56321 9.15012C3.02735 8.9512 3.62409 8.68598 4.28715 8.42076C4.9502 8.15554 5.74587 7.82401 6.60783 7.55879C7.4698 7.29357 8.46438 6.96205 9.52527 6.76313C9.79049 6.69682 10.0557 6.63052 10.3209 6.63052C10.5862 6.56421 10.9177 6.56421 11.1829 6.49791C11.3155 6.49791 11.4481 6.49791 11.647 6.4316C11.7797 6.4316 11.9786 6.4316 12.1112 6.4316C12.2438 6.4316 12.4427 6.4316 12.5753 6.4316C12.7079 6.4316 12.9068 6.4316 13.0395 6.4316C15.4927 6.4316 18.145 6.82943 20.9298 7.42618C22.7863 7.89032 24.5103 8.42076 26.1679 9.01751C27.8255 9.61426 29.2843 10.2773 30.6767 10.8741C33.3952 12.1339 35.6496 13.1947 37.1746 13.9904C37.9703 14.2556 38.9648 14.5872 40.092 14.985C41.2192 15.3165 42.5453 15.648 44.004 16.0459C46.9215 16.7089 50.303 17.3057 54.0161 17.6372C55.3423 17.7698 56.6684 17.8361 57.9945 17.8361C59.2543 17.8361 60.5141 17.8361 61.7076 17.7035C62.9011 17.6372 63.9619 17.4383 65.0228 17.3057C65.288 17.2394 65.5533 17.1731 65.7522 17.1731C65.8848 17.1731 66.0174 17.1068 66.15 17.1068C66.2826 17.1068 66.4152 17.0405 66.4816 17.0405C66.7468 16.9741 66.9457 16.9078 67.1446 16.8415C67.3435 16.7752 67.6087 16.7089 67.8077 16.6426C69.5316 16.1122 70.7914 15.4491 71.6534 14.985C72.1175 14.7198 72.3827 14.5209 72.6479 14.3882C72.6479 14.3219 72.7806 14.2556 72.7806 14.2556Z" fill="#CEC8B8"/>
<path d="M72.3164 15.1839C72.3164 15.1839 72.1838 15.2502 71.9186 15.3165C71.6534 15.4491 71.3219 15.5817 70.8577 15.7806C69.9295 16.1122 68.537 16.6426 66.7468 16.9741C64.9566 17.3057 62.7685 17.5046 60.3152 17.3057C59.1217 17.2394 57.8619 17.0404 56.5358 16.7752C55.276 16.51 53.9499 16.1785 52.6238 15.7806C50.8335 15.2502 49.1096 14.5872 47.5183 13.9241C45.9269 13.261 44.4682 12.598 43.1421 12.0012C40.4236 10.7414 38.2355 9.74686 36.7105 9.0175C35.9148 8.75228 34.9202 8.48706 33.7267 8.15553C32.5996 7.82401 31.2734 7.49248 29.8147 7.16095C28.356 6.82943 26.831 6.36529 25.1734 6.03376C23.5157 5.63593 21.7918 5.30441 20.0015 5.03918C17.3493 4.64135 14.8297 4.57505 12.5753 4.97288C12.4427 4.97288 12.3101 5.03918 12.1775 5.03918C12.0449 5.03918 11.9123 5.10549 11.7797 5.10549C11.5145 5.1718 11.2492 5.2381 10.984 5.30441C10.7188 5.37071 10.4536 5.43702 10.2547 5.56963C10.0557 5.63593 9.79052 5.76854 9.59161 5.83485C8.72964 6.29899 7.93397 6.82943 7.20461 7.35987C6.47526 7.89031 5.8122 8.35445 5.14915 8.68598C4.4861 9.0175 3.88935 9.28273 3.42521 9.34903C2.89477 9.48164 2.49694 9.48164 2.23172 9.48164C2.0991 9.48164 1.96649 9.48164 1.90019 9.48164C1.83388 9.48164 1.76758 9.48164 1.76758 9.48164C1.76758 9.48164 1.83388 9.48164 1.90019 9.48164C1.96649 9.48164 2.0991 9.48164 2.23172 9.48164C2.49694 9.48164 2.89477 9.34903 3.35891 9.21642C3.82304 9.0175 4.35349 8.75228 4.88393 8.35445C5.34807 8.02292 5.94481 7.49248 6.60787 6.89573C7.27092 6.29899 8.00028 5.63593 8.92855 5.03918C9.19377 4.90657 9.39269 4.77396 9.72422 4.64135C9.98944 4.50874 10.2547 4.44244 10.5199 4.30983C10.7851 4.24352 11.0503 4.11091 11.3819 4.04461C11.5145 3.9783 11.6471 3.9783 11.846 3.91199C11.9786 3.84569 12.1112 3.84569 12.3101 3.77938C12.6417 3.71308 12.9069 3.64677 13.2384 3.58047C13.5699 3.51416 13.8351 3.44786 14.1667 3.44786C14.8297 3.38155 15.4928 3.31525 16.1558 3.31525C17.4819 3.31525 18.8744 3.38155 20.2668 3.58047C22.1896 3.84569 23.9136 4.24352 25.5712 4.77396C27.2288 5.2381 28.7538 5.76854 30.1463 6.23268C30.8756 6.4979 31.5387 6.69682 32.1354 6.89573C32.268 6.96204 32.4669 7.02834 32.5996 7.09465C32.7322 7.16096 32.9311 7.22726 33.0637 7.29357C33.3952 7.42618 33.6604 7.49248 33.9257 7.62509C35.0529 8.08923 35.9811 8.48706 36.7768 8.81859C38.4344 9.28272 40.7551 10.0784 43.5399 11.1393C46.3248 12.1339 49.5737 13.3937 53.0879 14.4545C54.3477 14.8524 55.6738 15.1839 56.8673 15.4491C58.1271 15.7143 59.3206 15.9133 60.4478 16.1122C62.7685 16.3774 64.8903 16.4437 66.6142 16.3111C68.4044 16.1785 69.7968 15.847 70.7914 15.648C71.786 15.3165 72.3164 15.1839 72.3164 15.1839Z" fill="#CEC8B8"/>
<path d="M72.7805 14.2556C72.7805 14.2556 72.6479 14.3219 72.449 14.4545C72.3163 14.5208 72.1837 14.5871 72.0511 14.7198C71.9185 14.8524 71.7196 14.9187 71.4544 15.0513C70.9902 15.3165 70.4598 15.5817 69.7304 15.7806C69.0674 16.0459 68.2054 16.2448 67.2771 16.3774C66.3489 16.51 65.288 16.51 64.2271 16.4437C63.0999 16.3774 61.9727 16.1122 60.7792 15.847C59.5857 15.5154 58.3922 15.1839 57.1324 14.7198C56.5357 14.5208 55.8726 14.2556 55.2759 14.0567C54.6791 13.7915 54.0161 13.5926 53.353 13.3273C52.4911 12.9958 51.6291 12.6643 50.7671 12.3328C49.9051 12.0012 49.1095 11.6697 48.3138 11.3382C46.7225 10.6088 45.2638 9.94578 43.9377 9.34903C43.2746 9.0175 42.6116 8.75228 42.0148 8.42075C41.4181 8.08923 40.8213 7.82401 40.2909 7.55878C39.23 7.02834 38.3017 6.5642 37.506 6.16637C35.9147 5.56962 33.594 4.77396 30.8092 3.71308C29.4168 3.18263 27.8918 2.7185 26.3004 2.32066C24.6428 1.92283 22.9189 1.65761 21.1286 1.5913C19.8025 1.525 18.4764 1.5913 17.2829 1.79022H17.084C17.0177 1.79022 16.9514 1.79022 16.8851 1.85653C16.7525 1.85653 16.5536 1.92283 16.421 1.92283C16.2883 1.92283 16.1557 1.98914 15.9568 1.98914C15.8242 2.05544 15.6916 2.05544 15.4927 2.12175C15.2275 2.18805 14.8959 2.25436 14.6307 2.38697C14.4318 2.51958 14.1666 2.65219 13.9013 2.7185L13.7024 2.7848L13.5035 2.85111C13.3709 2.91741 13.2383 2.98372 13.1057 3.05002C12.8405 3.18263 12.5752 3.24894 12.3763 3.38155C11.9122 3.64677 11.5144 3.91199 11.1165 4.24352C10.3209 4.90657 9.5915 5.50332 8.92845 6.10007C8.2654 6.69682 7.60234 7.16095 6.93929 7.55878C6.60776 7.7577 6.34254 7.89031 6.01102 8.02292C5.74579 8.15553 5.41427 8.22184 5.14905 8.28814C4.6186 8.42075 4.22077 8.35445 3.95555 8.28814C3.82294 8.28814 3.75663 8.22184 3.69033 8.22184C3.62402 8.22184 3.62402 8.22184 3.62402 8.22184C3.62402 8.22184 3.69033 8.22184 3.75663 8.22184C3.82294 8.22184 3.95555 8.22184 4.08816 8.22184C4.35338 8.22184 4.75121 8.22184 5.21535 8.02292C5.48057 7.95662 5.67949 7.82401 5.94471 7.6914C6.20993 7.55878 6.47515 7.35987 6.74037 7.16095C7.27082 6.76312 7.86756 6.23268 8.46431 5.56962C9.06106 4.97288 9.72411 4.24352 10.5198 3.51416C10.9176 3.11633 11.3154 2.7848 11.8459 2.45327C12.1111 2.25436 12.3763 2.18805 12.6415 1.98914C12.7742 1.92283 12.9068 1.85653 13.0394 1.79022L13.2383 1.65761L13.4372 1.5913C13.7024 1.45869 14.034 1.32608 14.2992 1.19347C14.5644 1.06086 14.8959 0.994557 15.2275 0.861946C15.3601 0.795641 15.559 0.729336 15.6916 0.729336C15.8242 0.66303 16.0231 0.66303 16.1557 0.596725C16.2883 0.53042 16.4873 0.53042 16.6199 0.464114C16.6862 0.464114 16.7525 0.397809 16.8851 0.397809L17.1503 0.331504C18.4764 0.0662824 19.8688 -2.28882e-05 21.3275 -2.28882e-05C23.2504 0.0662824 25.1069 0.397809 26.8309 0.861946C28.4222 1.45869 29.9472 2.05544 31.3396 2.7185C34.0582 3.9783 36.2462 5.10549 37.7713 5.83485C38.5669 6.10007 39.5615 6.4979 40.6887 6.89573C41.8159 7.29356 43.0757 7.82401 44.4681 8.35445C45.8605 8.88489 47.3855 9.48164 48.9769 10.0784C49.7725 10.4099 50.5682 10.6751 51.4302 11.0067C52.2921 11.3382 53.1541 11.6697 54.0161 12.0012C54.6791 12.2665 55.2759 12.4654 55.8726 12.7306C56.4694 12.9958 57.1324 13.1947 57.7292 13.46C58.9227 13.9241 60.1162 14.3219 61.1771 14.7198C62.3042 15.0513 63.3651 15.3828 64.3597 15.5154C65.3543 15.7143 66.3489 15.7806 67.2108 15.7143C68.9348 15.648 70.3935 15.2502 71.3218 14.9187C71.587 14.8524 71.7859 14.7198 71.9185 14.6535C72.1174 14.5871 72.25 14.5208 72.3826 14.4545C72.6479 14.3219 72.7805 14.2556 72.7805 14.2556Z" fill="#CEC8B8"/>
<path d="M69.598 15.5154C69.598 15.5154 69.797 15.4491 70.0622 15.3828C70.1948 15.3165 70.3937 15.2502 70.5926 15.1839C70.7915 15.1176 70.9905 14.985 71.1894 14.8524C71.5872 14.5871 71.985 14.2556 72.1839 13.7915C72.2503 13.6589 72.2503 13.5263 72.3166 13.3936C72.3166 13.3273 72.3166 13.261 72.3829 13.1947C72.3829 13.1284 72.3829 13.0621 72.4492 12.9958C72.5155 12.7306 72.5155 12.3991 72.4492 12.0675C72.3829 11.2056 72.0513 10.3436 71.6535 9.68054C71.4546 9.34901 71.2557 9.08379 70.9905 8.81857C70.7915 8.55335 70.5263 8.35443 70.3274 8.22182C69.8633 8.08921 69.1339 8.02291 68.3382 8.15552C67.9404 8.22182 67.4763 8.28813 67.0784 8.42074C66.8795 8.48705 66.6806 8.55335 66.4817 8.68596C66.4154 8.75227 66.3491 8.75227 66.2165 8.81857C66.1502 8.81857 66.1502 8.88488 66.0839 8.88488L66.0176 8.95118L65.9512 9.01749C65.7523 9.1501 65.686 9.34901 65.6197 9.54793C65.5534 9.74685 65.5534 10.0121 65.6197 10.2773C65.7523 10.8077 66.0839 11.2056 66.4154 11.4708C66.6143 11.6034 66.7469 11.6697 66.9458 11.6697H67.0121H67.0784C67.1447 11.6697 67.1447 11.6697 67.2111 11.6697C67.2774 11.6697 67.3437 11.6697 67.41 11.6034C67.4763 11.6034 67.5426 11.5371 67.6089 11.5371C67.6752 11.5371 67.6752 11.4708 67.7415 11.4708C67.8078 11.4045 67.8741 11.4045 67.8741 11.4045C67.8741 11.4045 67.8741 11.4708 67.8078 11.5371C67.8078 11.6034 67.7415 11.6034 67.7415 11.6697C67.6752 11.736 67.6752 11.8023 67.6089 11.8023C67.5426 11.8686 67.4763 11.9349 67.41 12.0012C67.3437 12.0012 67.3437 12.0675 67.2774 12.0675C67.2774 12.0675 67.2111 12.0675 67.2111 12.1338H67.1447C66.8795 12.2001 66.548 12.2001 66.2828 12.1338C65.6197 11.9349 65.023 11.4708 64.5588 10.7414C64.3599 10.3436 64.2273 9.87946 64.2936 9.34901C64.2936 9.08379 64.3599 8.81857 64.4925 8.55335L64.5588 8.35443L64.6914 8.15552C64.7578 8.02291 64.8904 7.9566 64.9567 7.82399L65.0893 7.75769L65.2219 7.69138C65.2882 7.62508 65.3545 7.55877 65.4208 7.55877C65.5534 7.49247 65.7523 7.35985 65.8849 7.35985C66.2165 7.22724 66.4817 7.16094 66.8132 7.09463C66.9458 7.09463 67.0784 7.02833 67.2111 7.02833C67.3437 7.02833 67.4763 7.02833 67.6089 7.02833C67.7415 7.02833 67.8741 7.02833 68.0067 7.02833C68.1393 7.02833 68.2719 7.02833 68.3382 7.02833C68.4708 7.02833 68.6035 7.09463 68.6698 7.09463C68.7361 7.09463 68.8024 7.09463 68.8687 7.09463C68.935 7.09463 69.0013 7.09463 69.0676 7.16094C69.2002 7.16094 69.2665 7.22724 69.3991 7.22724C69.4654 7.29355 69.598 7.29355 69.6643 7.35985C69.9959 7.49247 70.3274 7.69138 70.5263 7.82399C70.7915 7.8903 71.1231 8.02291 71.4546 8.15552C71.7861 8.35443 72.1839 8.55335 72.5155 8.88488C73.2448 9.54793 73.8416 10.5425 73.9742 11.8023C74.0405 12.2664 73.9742 12.7306 73.8416 13.1284C73.7753 13.261 73.7753 13.3273 73.709 13.4599C73.6427 13.5926 73.6427 13.6589 73.5764 13.7915C73.4438 13.9904 73.3774 14.1893 73.2448 14.3219C73.1122 14.5208 72.9796 14.6534 72.7807 14.7861C72.7144 14.8524 72.6481 14.9187 72.5155 14.985C72.4492 15.0513 72.3829 15.1176 72.2503 15.1176C72.0513 15.1839 71.9187 15.3165 71.7861 15.3165C71.7198 15.3165 71.6535 15.3828 71.5209 15.3828C71.4546 15.3828 71.3883 15.3828 71.322 15.4491C71.0568 15.5154 70.7915 15.5154 70.5263 15.5154C70.3274 15.5154 70.1285 15.5154 69.9296 15.4491C69.797 15.5817 69.598 15.5154 69.598 15.5154Z" fill="#CEC8B8"/>
<path d="M7.60236 13.261C7.60236 13.261 7.53605 13.261 7.40344 13.3273C7.27083 13.3936 7.07192 13.4599 6.8067 13.5263C6.67409 13.5263 6.54147 13.5926 6.34256 13.5926C6.14364 13.5926 5.94473 13.5926 5.74581 13.4599C5.54689 13.3936 5.28167 13.1947 5.21537 12.9295C5.08276 12.6643 5.08276 12.3991 5.14906 12.1338C5.21537 11.6034 5.48059 11.073 5.94473 10.6088C6.14364 10.3436 6.40886 10.1447 6.74039 9.94576C7.07192 9.74685 7.40344 9.61424 7.86758 9.54793C8.0665 9.54793 8.33172 9.54793 8.53063 9.61424C8.79586 9.68054 8.99477 9.74685 9.19369 9.87946C9.3926 10.0121 9.59152 10.1447 9.72413 10.2773C9.85674 10.4099 9.98935 10.6088 10.122 10.7414C10.2546 10.9403 10.3209 11.073 10.4535 11.2719C10.5198 11.4708 10.5861 11.6034 10.6524 11.8023C10.6524 11.8686 10.7187 12.0012 10.7187 12.0675C10.7187 12.2001 10.785 12.2664 10.785 12.3991V12.5317V12.6643C10.785 12.7969 10.785 12.8632 10.785 12.9958C10.785 13.5926 10.6524 14.1893 10.3209 14.7197C10.0557 15.2502 9.59152 15.648 9.19369 15.9132C8.33172 16.51 7.33714 16.7752 6.54147 16.8415C5.67951 16.9078 4.88384 16.8415 4.22079 16.7089C3.55773 16.5763 3.02729 16.3111 2.62946 16.0459C2.43054 15.9795 2.16532 15.8469 1.96641 15.7143C1.9001 15.648 1.8338 15.648 1.76749 15.5817C1.70119 15.5154 1.63488 15.5154 1.56858 15.4491C1.43596 15.3165 1.30335 15.1839 1.17074 15.0513C0.905522 14.7861 0.706606 14.5208 0.50769 14.1893C0.308774 13.8578 0.109858 13.4599 0.0435529 12.9958C-0.0227524 12.5317 -0.0227524 12.0675 0.109858 11.5371C0.242469 11.073 0.441385 10.6088 0.772911 10.211C1.36966 9.41532 2.09902 8.75227 2.96099 8.08921C4.08818 7.35986 5.34798 6.6968 6.40886 6.10005C7.53605 5.50331 8.46433 4.97286 9.25999 4.50873C10.0557 4.04459 10.6524 3.58045 11.0502 3.24893C11.2492 3.05001 11.3818 2.9174 11.4481 2.85109C11.5144 2.71848 11.5807 2.71848 11.5807 2.71848C11.5807 2.71848 11.5807 2.78479 11.5144 2.9174C11.5144 2.9174 11.4481 3.11631 11.2492 3.38154C10.9839 3.84567 10.4535 4.44242 9.79044 5.10547C9.06108 5.76853 8.19911 6.43158 7.13822 7.16094C6.14364 7.8903 4.95015 8.61966 3.82296 9.41532C3.0936 9.94576 2.36424 10.5425 1.9001 11.1393C1.36966 11.736 1.10444 12.3328 1.17074 12.9295C1.17074 13.5263 1.50227 14.123 1.76749 14.6534C1.8338 14.7861 1.9001 14.9187 2.03271 14.985C2.09902 15.0513 2.09902 15.1176 2.16532 15.1176C2.23163 15.1839 2.23163 15.1839 2.29793 15.2502C2.49685 15.4491 2.62946 15.5817 2.82838 15.7143C3.22621 15.8469 3.75665 15.9795 4.3534 15.9795C4.95015 15.9795 5.6132 15.9132 6.34256 15.7806C6.67409 15.7143 7.07192 15.5817 7.40344 15.3828C7.73497 15.2502 8.0665 15.0513 8.33172 14.7861C8.59694 14.5208 8.86216 14.2556 8.99477 13.9904C9.12738 13.6589 9.25999 13.3936 9.19369 12.9958C9.19369 12.9295 9.19369 12.8632 9.19369 12.7969V12.7306V12.598L9.12738 12.3991L9.06108 12.2001C8.99477 12.0675 8.99477 11.9349 8.92847 11.8023C8.86216 11.6697 8.79586 11.5371 8.72955 11.4045C8.59694 11.2056 8.46433 11.0066 8.26541 10.874C8.1328 10.7414 7.93389 10.6751 7.80128 10.6751C7.40344 10.6751 6.93931 10.874 6.60778 11.2056C6.27625 11.5371 5.94473 11.8686 5.81212 12.2001C5.74581 12.3991 5.74581 12.5317 5.74581 12.6643C5.74581 12.7969 5.81212 12.9295 5.94473 12.9958C6.07734 13.0621 6.20995 13.1284 6.34256 13.1947C6.47517 13.261 6.60778 13.261 6.74039 13.261C7.00561 13.261 7.20453 13.261 7.33714 13.261C7.53605 13.3273 7.60236 13.261 7.60236 13.261Z" fill="#CEC8B8"/>
</svg>
