<svg width="68" height="67" viewBox="0 0 68 67" fill="none" xmlns="http://www.w3.org/2000/svg">
<path fill-rule="evenodd" clip-rule="evenodd" d="M25.7803 65.9274C25.7327 65.3933 25.6877 64.8895 25.647 64.4334C25.6214 64.1466 25.5974 63.8786 25.5756 63.634L25.5557 63.4177C25.2144 59.703 25.2087 59.6414 25.7988 59.242C26.439 58.7614 26.4818 57.8614 25.824 57.4852C25.1921 57.1134 22.8945 57.1317 22.1894 57.5214C21.6313 57.8288 21.5794 57.9803 21.7658 58.6249C21.8611 59.0143 22.1209 59.3777 22.3286 59.4122C22.77 59.4856 22.796 59.65 22.8752 62.7048C22.8867 63.1753 22.922 64.0186 22.9727 65.0746C23.8883 65.3979 24.8247 65.6829 25.7803 65.9274ZM18.3342 63.0209C18.2768 62.5662 18.2301 62.202 18.1974 61.9539C17.9543 59.8857 17.9671 59.6477 18.3738 59.4485C18.668 59.284 18.8365 58.9118 18.8623 58.4358C18.8819 58.1354 18.894 57.9489 18.8132 57.8214C18.681 57.6129 18.2999 57.5621 17.2955 57.4283C15.2617 57.1435 14.5046 57.3645 14.4531 58.3165C14.436 58.7405 14.6309 59.1731 14.9468 59.3591C15.2589 59.5747 15.4106 59.9991 15.5391 61.3294C16.4381 61.9366 17.3706 62.5016 18.3342 63.0209ZM10.821 57.4603C3.45205 50.1789 -0.383973 39.5496 1.444 28.5533C4.43267 10.5746 21.4301 -1.5772 39.4087 1.41147C57.3874 4.40014 69.5392 21.3975 66.5506 39.3762C65.4909 45.7506 62.6703 51.3925 58.6692 55.8868L47.5171 52.0198C41.1858 49.8201 35.7114 47.9228 35.3565 47.8105C34.9021 47.6549 31.5752 48.7294 22.8057 51.8874C16.2514 54.2397 10.8652 56.306 10.8609 56.492C10.8394 56.6216 10.8312 56.9974 10.822 57.4142C10.8217 57.4295 10.8214 57.4449 10.821 57.4603ZM54.4303 59.8782C54.4701 59.5928 54.5149 59.4265 54.5558 59.4333C54.6856 59.4549 54.9668 59.2081 55.183 58.8705C55.5376 58.3425 55.5418 58.1564 55.1695 57.6676C54.7799 57.1226 54.6024 57.0664 53.0793 57.08C51.9284 57.1021 51.2924 57.2366 51.0545 57.5439C50.674 58.0676 50.8517 58.9243 51.436 59.2615C51.6784 59.4085 51.7263 60.0835 51.6143 61.399C51.6029 61.5262 51.5882 61.6939 51.5707 61.8967C52.5587 61.2747 53.5133 60.6008 54.4303 59.8782ZM47.025 64.2887C47.0288 63.985 47.0315 63.6999 47.0329 63.4389C47.0745 59.497 47.0789 59.471 47.6844 59.0381C48.2295 58.6484 48.2467 58.5446 47.9912 57.9952C47.7357 57.4457 47.489 57.3247 46.2817 57.204C44.6028 57.0317 43.5818 57.3956 43.5519 58.2177C43.552 58.5379 43.7772 58.9489 44.0412 59.1262C44.4956 59.4418 44.5391 59.8226 44.2722 63.0333C44.2258 63.679 44.1712 64.4939 44.115 65.3827C45.1041 65.0632 46.0751 64.6979 47.025 64.2887ZM40.0248 66.4187C39.9626 64.0941 39.8925 62.1156 39.845 61.4169C39.7534 59.7208 39.7836 59.539 40.2076 59.396C40.7744 59.1968 40.9773 58.1366 40.5271 57.6348C40.1461 57.198 37.8571 57.0042 36.9226 57.3291C36.2131 57.5847 36.14 58.8266 36.8152 59.259C37.248 59.5444 37.3002 60.0333 37.2192 62.9281C37.1867 63.8558 37.1533 65.2836 37.1278 66.8241C38.104 66.7317 39.0705 66.5961 40.0248 66.4187ZM33.0254 66.9543C32.9753 66.2092 32.9245 65.4845 32.8757 64.8208C32.5622 60.1262 32.5533 59.6978 33.0119 59.3471C33.6261 58.8623 33.7253 58.2651 33.2967 57.6336C32.9244 57.1448 31.9811 57.0413 30.1292 57.2671C28.762 57.4667 28.4984 58.4101 29.5373 59.3832C29.9312 59.7422 30.0656 60.2181 30.0227 61.2782C30.007 61.8456 30.0226 64.0541 30.0722 66.7311C31.0615 66.8504 32.0466 66.9243 33.0254 66.9543ZM34.5379 4.74458C34.417 5.31147 34.3526 6.50141 34.3399 7.37979C34.3449 8.9548 34.3406 8.98076 33.4624 9.44844C32.4329 10.0244 31.5982 11.0329 31.4514 11.9157C31.3953 12.2532 31.0191 12.7509 30.5995 13.028C29.5786 13.7121 29.622 13.9328 30.6907 13.9237L31.5691 13.9363L31.6132 15.7579C31.6049 16.7704 31.6443 17.8175 31.6574 18.0599C31.7051 18.4146 31.4499 18.5056 30.4633 18.5017C29.2691 18.4633 29.2388 18.4849 29.2608 19.3157C29.261 19.796 29.6118 20.5747 30.1183 21.2192L30.9798 22.2962L30.7104 29.8555C30.5521 34.0181 30.4411 37.7351 30.4543 38.1375C30.4848 38.7562 30.3594 38.8688 29.7883 38.9339C28.9792 38.9862 28.9316 39.1117 28.9675 42.1059C28.9698 42.4216 28.9754 42.7077 28.9804 42.967C29.0022 44.0974 29.0141 44.7177 28.7113 45.0577C28.3432 45.4711 27.5098 45.4702 25.663 45.4682C25.3092 45.4678 24.9182 45.4674 24.4862 45.4698C22.0847 45.4709 19.891 45.5064 19.5664 45.5325L19.0039 45.5457L19.0354 48.4058C19.0447 49.9549 19.0929 51.2702 19.1362 51.3308C19.1578 51.3611 22.6968 50.1351 27.0101 48.5842L34.8407 45.777L42.3058 48.3787C46.417 49.8092 49.8618 50.9155 49.9526 50.8505C50.104 50.7423 50.1754 45.6581 50.0282 45.4201C50.0109 45.3639 47.9556 45.3691 45.4719 45.3831C42.9839 45.4231 40.8248 45.411 40.669 45.3851C40.5132 45.3592 40.4001 43.953 40.4383 42.1184L40.4672 38.8948L39.7489 38.8821C39.1648 38.865 38.996 38.7569 38.9612 38.3243C38.9459 38.1345 38.8873 36.7796 38.8028 34.8273C38.7428 33.4401 38.6697 31.7513 38.5899 29.9647L38.2534 22.198L39.1356 21.0639C39.7454 20.2848 39.9962 19.7395 39.9483 19.2246C39.8961 18.5756 39.8009 18.5064 38.8706 18.4852C38.8056 18.4833 38.7445 18.482 38.687 18.4808C38.3648 18.4742 38.1564 18.4699 38.021 18.3683C37.7728 18.1822 37.7697 17.6694 37.7608 16.2172C37.7599 16.0601 37.7588 15.892 37.7574 15.7121C37.7524 13.977 37.9297 13.7129 39.0721 13.9029C39.851 14.0323 39.8681 13.6083 39.0977 13.2668C38.7515 13.1025 38.2623 12.5142 38.0154 11.9129C37.4654 10.5674 37.0844 10.1306 35.9332 9.51231C35.0503 9.04537 35.0329 8.98912 34.9584 6.70885C34.849 3.83579 34.7796 3.45072 34.5379 4.74458ZM35.4899 25.5006C35.5031 26.0631 35.4645 26.9372 35.3825 27.4305C35.2747 28.2397 35.1795 28.3306 34.5694 28.3092C33.8035 28.2619 33.7472 28.1192 33.8155 25.7826C33.8193 24.6359 33.8885 24.5407 34.451 24.5275C34.7972 24.5317 35.1736 24.5142 35.2818 24.5055C35.3856 24.5228 35.4724 24.9641 35.4899 25.5006ZM38.7895 41.6042C38.8546 42.1753 38.8291 43.2917 38.7299 44.0489C38.5661 45.3557 38.5271 45.4293 37.8651 45.3993C37.1771 45.365 37.1598 45.3087 37.1849 43.2318C37.2055 40.8606 37.4043 40.3067 38.1572 40.4318C38.5467 40.4966 38.7113 40.7907 38.7895 41.6042ZM35.6573 42.9512C35.6843 45.357 35.5892 45.608 34.5247 45.431C34.0314 45.349 33.9664 45.0981 33.9872 43.2072C34.0165 40.7841 34.2153 40.2301 35.0246 40.4981C35.5309 40.6623 35.6175 40.9435 35.6573 42.9512ZM32.4594 42.2862C32.5646 45.3453 32.5127 45.4968 31.591 45.4236L30.7732 45.3677L30.8285 43.109C30.8621 40.6599 31.0393 40.2358 31.8486 40.5037C32.3073 40.6333 32.4113 40.9708 32.4594 42.2862Z" fill="#E25C45"/>
</svg>
