<svg width="23" height="23" viewBox="0 0 23 23" fill="none" xmlns="http://www.w3.org/2000/svg">
<path d="M11.5 0C5.152 0 0 5.152 0 11.5C0 17.848 5.152 23 11.5 23C17.848 23 23 17.848 23 11.5C23 5.152 17.848 0 11.5 0ZM16.836 7.82C16.6635 9.637 15.916 14.053 15.5365 16.0885C15.3755 16.951 15.0535 17.2385 14.7545 17.273C14.0875 17.3305 13.5815 16.836 12.9375 16.4105C11.9255 15.7435 11.3505 15.3295 10.373 14.6855C9.2345 13.938 9.9705 13.524 10.626 12.857C10.7985 12.6845 13.7425 10.005 13.8 9.7635C13.808 9.72692 13.8069 9.68895 13.7969 9.65287C13.7869 9.6168 13.7682 9.58372 13.7425 9.5565C13.6735 9.499 13.5815 9.522 13.501 9.5335C13.3975 9.5565 11.7875 10.626 8.648 12.742C8.188 13.0525 7.774 13.2135 7.406 13.202C6.992 13.1905 6.21 12.972 5.6235 12.7765C4.899 12.5465 4.3355 12.42 4.3815 12.0175C4.4045 11.8105 4.692 11.6035 5.2325 11.385C8.5905 9.9245 10.8215 8.9585 11.937 8.4985C15.134 7.1645 15.7895 6.9345 16.2265 6.9345C16.3185 6.9345 16.537 6.9575 16.675 7.0725C16.79 7.1645 16.8245 7.291 16.836 7.383C16.8245 7.452 16.8475 7.659 16.836 7.82Z" fill="#E25C45"/>
</svg>
