<svg width="15" height="19" viewBox="0 0 15 19" fill="none" xmlns="http://www.w3.org/2000/svg">
<path d="M7.6764 1.78113L7.59964 1.8017C7.33604 1.87502 7.10426 2.0338 6.94069 2.25312C6.77711 2.47244 6.69101 2.73988 6.69589 3.01344C6.69443 3.28144 6.60495 3.54154 6.44122 3.75371C6.27749 3.96589 6.04858 4.11839 5.78971 4.18776C5.53083 4.25712 5.25634 4.23951 5.00846 4.13762C4.76058 4.03574 4.55304 3.85522 4.41777 3.62386C4.28522 3.38451 4.07693 3.19596 3.82561 3.08781C3.57429 2.97966 3.29417 2.95803 3.02923 3.02633L2.95246 3.0469C2.16996 3.25758 1.50296 3.77002 1.09778 4.47182C0.692597 5.17362 0.58231 6.00747 0.79111 6.79048L3.32266 16.2384C3.44855 16.7082 3.75592 17.1088 4.17716 17.352C4.59839 17.5952 5.09898 17.6611 5.56881 17.5352L6.82656 17.1982C7.09015 17.1248 7.32193 16.9661 7.48551 16.7467C7.64908 16.5274 7.73519 16.26 7.73031 15.9864C7.73177 15.7184 7.82125 15.4583 7.98498 15.2461C8.14871 15.034 8.37762 14.8815 8.63649 14.8121C8.89536 14.7427 9.16986 14.7603 9.41774 14.8622C9.66562 14.9641 9.87316 15.1446 10.0084 15.376C10.141 15.6153 10.3493 15.8039 10.6006 15.912C10.8519 16.0202 11.132 16.0418 11.397 15.9735L12.6547 15.6365C13.1245 15.5106 13.5251 15.2032 13.7683 14.782C14.0115 14.3608 14.0774 13.8602 13.9515 13.3904L11.42 3.94248C11.2093 3.15998 10.6969 2.49298 9.99507 2.0878C9.29327 1.68261 8.45941 1.57233 7.6764 1.78113V1.78113ZM12.3383 14.4555L11.0629 14.7574C10.7899 14.2935 10.3715 13.9326 9.87257 13.7307C9.37361 13.5288 8.82197 13.4971 8.3032 13.6407C7.78443 13.7842 7.32752 14.0949 7.00333 14.5246C6.67913 14.9543 6.50576 15.4789 6.51011 16.0172L5.25236 16.3542C5.09575 16.3961 4.92889 16.3742 4.78848 16.2931C4.64807 16.212 4.54561 16.0785 4.50365 15.9219L3.87076 13.5599L5.05175 13.2435C5.20835 13.2015 5.34188 13.0991 5.42294 12.9587C5.50401 12.8183 5.52598 12.6514 5.48402 12.4948C5.44205 12.3382 5.3396 12.2047 5.19918 12.1236C5.05877 12.0425 4.89191 12.0206 4.7353 12.0625L3.55432 12.379L1.9721 6.47403C1.84621 6.00421 1.91211 5.50362 2.15531 5.08238C2.39851 4.66115 2.79908 4.35378 3.26891 4.22789L3.36332 4.24246C3.63507 4.70344 4.0502 5.06283 4.54534 5.26579C5.04048 5.46874 5.58843 5.5041 6.10554 5.36648C6.62821 5.22165 7.08926 4.91005 7.41853 4.47909C7.74781 4.04813 7.92729 3.5214 7.92967 2.97904L7.99285 2.96211C8.46267 2.83622 8.96327 2.90213 9.3845 3.14533C9.80573 3.38853 10.1131 3.7891 10.239 4.25892L11.8212 10.1639L10.6402 10.4803C10.4836 10.5223 10.3501 10.6247 10.269 10.7651C10.188 10.9055 10.166 11.0724 10.208 11.229C10.2499 11.3856 10.3524 11.5191 10.4928 11.6002C10.6332 11.6813 10.8001 11.7032 10.9567 11.6613L12.1377 11.3448L12.7705 13.7068C12.8125 13.8634 12.7905 14.0303 12.7095 14.1707C12.6284 14.3111 12.4949 14.4136 12.3383 14.4555Z" fill="white"/>
<path d="M8.27831 11.1133L7.09733 11.4298C6.94072 11.4718 6.8072 11.5742 6.72613 11.7146C6.64506 11.855 6.62309 12.0219 6.66506 12.1785C6.70702 12.3351 6.80948 12.4686 6.94989 12.5497C7.0903 12.6308 7.25716 12.6527 7.41377 12.6108L8.59476 12.2943C8.75137 12.2524 8.88489 12.1499 8.96596 12.0095C9.04702 11.8691 9.06899 11.7022 9.02703 11.5456C8.98507 11.389 8.88261 11.2555 8.7422 11.1744C8.60179 11.0934 8.43492 11.0714 8.27831 11.1133Z" fill="white"/>
</svg>
