<svg width="33" height="33" viewBox="0 0 33 33" fill="none" xmlns="http://www.w3.org/2000/svg">
<path d="M30.6845 2.3155C28.369 0 24.6414 0 17.1875 0H15.8125C8.35863 0 4.631 0 2.3155 2.3155C0 4.631 0 8.35863 0 15.8125V17.1875C0 24.6414 0 28.3676 2.3155 30.6845C4.631 33.0014 8.35863 33 15.8125 33H17.1875C24.6414 33 28.3676 33 30.6845 30.6845C33 28.369 33 24.6414 33 17.1875V15.8125C33 8.35863 33 4.631 30.6845 2.3155ZM26.8166 23.375H24.4104C23.4932 23.375 23.2238 22.6435 21.5916 21.0114C20.163 19.635 19.5511 19.4562 19.195 19.4562C18.7096 19.4562 18.5653 19.5938 18.5653 20.2812V22.4386C18.5653 23.0299 18.3769 23.375 16.8465 23.375C14.2972 23.375 11.495 21.8267 9.50537 18.9722C6.52163 14.7909 5.70625 11.6298 5.70625 10.9931C5.70625 10.6356 5.84375 10.3125 6.53125 10.3125H8.93888C9.5535 10.3125 9.7845 10.582 10.0155 11.2475C11.1925 14.6754 13.178 17.6715 13.9934 17.6715C14.2986 17.6715 14.4389 17.5299 14.4389 16.7544V13.211C14.3495 11.5802 13.4819 11.4455 13.4819 10.8652C13.4819 10.5971 13.7115 10.3125 14.0938 10.3125H17.8764C18.3865 10.3125 18.5639 10.5847 18.5639 11.1966V15.9637C18.5639 16.4725 18.7852 16.6512 18.9379 16.6512C19.2445 16.6512 19.4989 16.4725 20.0599 15.9115C21.7937 13.9741 23.0175 10.9917 23.0175 10.9917C23.1715 10.6342 23.452 10.3111 24.0653 10.3111H26.4715C27.1989 10.3111 27.3529 10.6851 27.1989 11.1953C26.8923 12.5978 23.9608 16.7269 23.9608 16.7269C23.705 17.1353 23.6033 17.3388 23.9608 17.798C24.2165 18.1555 25.0566 18.8691 25.6176 19.5319C26.6516 20.6951 27.4312 21.6755 27.6485 22.352C27.8492 23.0312 27.5041 23.375 26.8166 23.375Z" fill="#E25C45"/>
</svg>
