<svg width="23" height="23" viewBox="0 0 23 23" fill="none" xmlns="http://www.w3.org/2000/svg">
<path d="M0.00461539 23L1.55941 17.2868C0.534924 15.5306 -0.00332423 13.5332 1.54471e-05 11.5C1.54471e-05 5.14855 5.14856 0 11.5 0C17.8515 0 23 5.14855 23 11.5C23 17.8514 17.8515 23 11.5 23C9.4677 23.0033 7.47117 22.4654 5.71551 21.4417L0.00461539 23ZM7.34966 6.1042C7.20115 6.11342 7.05604 6.15253 6.92301 6.2192C6.79826 6.28984 6.68438 6.37815 6.58491 6.4814C6.44691 6.61135 6.36871 6.72405 6.28476 6.8333C5.85973 7.38644 5.63111 8.06543 5.63501 8.76299C5.63731 9.32649 5.78451 9.87504 6.01451 10.3879C6.48486 11.4252 7.25881 12.5235 8.28116 13.5412C8.52726 13.7862 8.76761 14.0323 9.02636 14.2611C10.2953 15.3783 11.8074 16.184 13.4424 16.614L14.0967 16.7141C14.3095 16.7256 14.5222 16.7095 14.7361 16.6991C15.071 16.6819 15.3981 16.5912 15.6941 16.4335C15.8447 16.3559 15.9916 16.2715 16.1345 16.1805C16.1345 16.1805 16.184 16.1483 16.2783 16.077C16.4335 15.962 16.529 15.8803 16.6578 15.7458C16.7532 15.6469 16.836 15.5307 16.8993 15.3985C16.989 15.211 17.0787 14.8534 17.1155 14.5555C17.1431 14.3278 17.135 14.2036 17.1316 14.1266C17.127 14.0035 17.0246 13.8759 16.9131 13.8218L16.2438 13.5217C16.2438 13.5217 15.2433 13.0858 14.6326 12.8075C14.5682 12.7795 14.4992 12.7635 14.4291 12.7604C14.3504 12.7523 14.2709 12.7612 14.1959 12.7864C14.1209 12.8115 14.0522 12.8525 13.9944 12.9064V12.9041C13.9886 12.9041 13.9116 12.9697 13.0801 13.9771C13.0324 14.0412 12.9667 14.0897 12.8913 14.1163C12.8159 14.1429 12.7343 14.1465 12.6569 14.1266C12.582 14.1066 12.5086 14.0812 12.4373 14.0507C12.2947 13.9909 12.2452 13.9679 12.1475 13.9253L12.1417 13.923C11.4838 13.6358 10.8747 13.2478 10.3362 12.773C10.1913 12.6465 10.0568 12.5085 9.91876 12.3751C9.46632 11.9419 9.07203 11.4517 8.74576 10.9169L8.67791 10.8077C8.62918 10.7343 8.58977 10.6551 8.56061 10.5719C8.51691 10.4029 8.63076 10.2672 8.63076 10.2672C8.63076 10.2672 8.91021 9.96129 9.04016 9.79569C9.14836 9.65806 9.24932 9.51489 9.34261 9.36674C9.47831 9.14824 9.52086 8.92399 9.44956 8.75034C9.12756 7.96375 8.79406 7.1806 8.45136 6.4032C8.38351 6.2491 8.18226 6.1387 7.99941 6.11685C7.93731 6.10995 7.87521 6.10305 7.81311 6.09845C7.65867 6.09077 7.50392 6.09346 7.34966 6.1042Z" fill="#E25C45"/>
</svg>
